<svg width="40" height="40" viewBox="0 0 40 40" fill="none" xmlns="http://www.w3.org/2000/svg">
<path fill-rule="evenodd" clip-rule="evenodd" d="M19.9998 10C19.2338 10 18.4753 10.1509 17.7675 10.444C17.0598 10.7372 16.4167 11.1669 15.875 11.7085C15.3334 12.2502 14.9037 12.8933 14.6105 13.601C14.3174 14.3087 14.1665 15.0673 14.1665 15.8333C14.1665 16.5994 14.3174 17.3579 14.6105 18.0657C14.9037 18.7734 15.3334 19.4164 15.875 19.9581C16.4167 20.4998 17.0598 20.9295 17.7675 21.2226C18.4753 21.5158 19.2338 21.6667 19.9998 21.6667C21.5469 21.6667 23.0307 21.0521 24.1246 19.9581C25.2186 18.8642 25.8332 17.3804 25.8332 15.8333C25.8332 14.2862 25.2186 12.8025 24.1246 11.7085C23.0307 10.6146 21.5469 10 19.9998 10ZM17.4998 15.8333C17.4998 15.1703 17.7632 14.5344 18.2321 14.0656C18.7009 13.5967 19.3368 13.3333 19.9998 13.3333C20.6629 13.3333 21.2988 13.5967 21.7676 14.0656C22.2364 14.5344 22.4998 15.1703 22.4998 15.8333C22.4998 16.4964 22.2364 17.1323 21.7676 17.6011C21.2988 18.0699 20.6629 18.3333 19.9998 18.3333C19.3368 18.3333 18.7009 18.0699 18.2321 17.6011C17.7632 17.1323 17.4998 16.4964 17.4998 15.8333Z" fill="#6C5CE7"/>
<path fill-rule="evenodd" clip-rule="evenodd" d="M20 3.33334C13.0467 3.33334 7.5 9.13834 7.5 16.1867C7.5 19.835 9.52333 23.5017 11.775 26.6633C13.3133 28.8233 15.125 30.96 16.7033 32.82C17.4367 33.6867 18.12 34.4917 18.7033 35.2133L20 36.82L21.2967 35.2133C21.88 34.4917 22.5633 33.6867 23.2967 32.82C24.875 30.96 26.6867 28.8233 28.225 26.6633C30.4767 23.5 32.5 19.8333 32.5 16.1867C32.5 9.13834 26.9533 3.33334 20 3.33334ZM10.8333 16.1867C10.8333 10.8783 14.9867 6.66668 20 6.66668C25.0133 6.66668 29.1667 10.8783 29.1667 16.1867C29.1667 18.7183 27.7083 21.6433 25.51 24.7283C24.0483 26.78 22.4183 28.7017 20.89 30.5033C20.5878 30.8567 20.2911 31.2067 20 31.5533L19.11 30.5033C17.5817 28.7033 15.9517 26.78 14.49 24.7283C12.2933 21.645 10.8333 18.7183 10.8333 16.1867Z" fill="#6C5CE7"/>
</svg>
