<svg width="40" height="40" viewBox="0 0 40 40" fill="none" xmlns="http://www.w3.org/2000/svg">
<path d="M13.3333 15H26.6667M13.3333 21.6667H23.3333M30 6.66666C31.3261 6.66666 32.5979 7.19344 33.5355 8.13112C34.4732 9.0688 35 10.3406 35 11.6667V25C35 26.3261 34.4732 27.5978 33.5355 28.5355C32.5979 29.4732 31.3261 30 30 30H21.6667L13.3333 35V30H10C8.67392 30 7.40215 29.4732 6.46447 28.5355C5.52678 27.5978 5 26.3261 5 25V11.6667C5 10.3406 5.52678 9.0688 6.46447 8.13112C7.40215 7.19344 8.67392 6.66666 10 6.66666H30Z" stroke="#6C5CE7" stroke-width="3" stroke-linecap="round" stroke-linejoin="round"/>
</svg>
