<svg width="64" height="64" viewBox="0 0 64 64" fill="none" xmlns="http://www.w3.org/2000/svg">
<path d="M40 14C41.5304 13.9999 43.003 14.5847 44.1165 15.6346C45.23 16.6845 45.9002 18.1202 45.99 19.648L46 20V40H47.5C48.794 40 49.86 40.984 49.988 42.244L50 42.5V46C50.0001 47.5304 49.4153 49.003 48.3654 50.1165C47.3155 51.23 45.8798 51.9002 44.352 51.99L44 52H24C22.4696 52.0001 20.997 51.4153 19.8835 50.3654C18.77 49.3155 18.0998 47.8798 18.01 46.352L18 46V26H14.5C13.8811 26.0003 13.2841 25.771 12.8245 25.3565C12.3649 24.9419 12.0754 24.3717 12.012 23.756L12 23.5V20C11.9999 18.4696 12.5847 16.997 13.6346 15.8835C14.6845 14.77 16.1202 14.0998 17.648 14.01L18 14H40ZM40 18H22V46C22 46.5304 22.2107 47.0391 22.5858 47.4142C22.9609 47.7893 23.4696 48 24 48C24.5304 48 25.0391 47.7893 25.4142 47.4142C25.7893 47.0391 26 46.5304 26 46V42.5C26 41.12 27.12 40 28.5 40H42V20C42 19.4696 41.7893 18.9609 41.4142 18.5858C41.0391 18.2107 40.5304 18 40 18ZM46 44H30V46C30 46.7 29.88 47.374 29.66 48H44C44.5304 48 45.0391 47.7893 45.4142 47.4142C45.7893 47.0391 46 46.5304 46 46V44ZM32 32C32.5304 32 33.0391 32.2107 33.4142 32.5858C33.7893 32.9609 34 33.4696 34 34C34 34.5304 33.7893 35.0391 33.4142 35.4142C33.0391 35.7893 32.5304 36 32 36H28C27.4696 36 26.9609 35.7893 26.5858 35.4142C26.2107 35.0391 26 34.5304 26 34C26 33.4696 26.2107 32.9609 26.5858 32.5858C26.9609 32.2107 27.4696 32 28 32H32ZM36 24C36.5304 24 37.0391 24.2107 37.4142 24.5858C37.7893 24.9609 38 25.4696 38 26C38 26.5304 37.7893 27.0391 37.4142 27.4142C37.0391 27.7893 36.5304 28 36 28H28C27.4696 28 26.9609 27.7893 26.5858 27.4142C26.2107 27.0391 26 26.5304 26 26C26 25.4696 26.2107 24.9609 26.5858 24.5858C26.9609 24.2107 27.4696 24 28 24H36ZM18 18C17.5101 18.0001 17.0373 18.1799 16.6713 18.5054C16.3052 18.8309 16.0713 19.2795 16.014 19.766L16 20V22H18V18Z" fill="#6C5CE7"/>
</svg>
