<svg width="64" height="64" viewBox="0 0 64 64" fill="none" xmlns="http://www.w3.org/2000/svg">
<path d="M24.2 50.426C21.7667 49.3753 19.65 47.95 17.85 46.15C16.05 44.35 14.6253 42.2333 13.576 39.8C12.5267 37.3667 12.0013 34.7667 12 32C11.9987 29.2333 12.524 26.6333 13.576 24.2C14.628 21.7667 16.0527 19.65 17.85 17.85C19.6473 16.05 21.764 14.6253 24.2 13.576C26.636 12.5267 29.236 12.0013 32 12C34.764 11.9987 37.364 12.524 39.8 13.576C42.236 14.628 44.3527 16.0527 46.15 17.85C47.9473 19.6473 49.3727 21.764 50.426 24.2C51.4793 26.636 52.004 29.236 52 32C51.996 34.764 51.4707 37.364 50.424 39.8C49.3773 42.236 47.9527 44.3527 46.15 46.15C44.3473 47.9473 42.2307 49.3727 39.8 50.426C37.3693 51.4793 34.7693 52.004 32 52C29.2307 51.996 26.6307 51.4727 24.2 50.426ZM43.35 43.35C46.45 40.25 48 36.4667 48 32C48 27.5333 46.45 23.75 43.35 20.65C40.25 17.55 36.4667 16 32 16C27.5333 16 23.75 17.55 20.65 20.65C17.55 23.75 16 27.5333 16 32C16 36.4667 17.55 40.25 20.65 43.35C23.75 46.45 27.5333 48 32 48C36.4667 48 40.25 46.45 43.35 43.35ZM23.5 40.5C21.1667 38.1667 20 35.3333 20 32C20 28.6667 21.1667 25.8333 23.5 23.5C25.8333 21.1667 28.6667 20 32 20C35.3333 20 38.1667 21.1667 40.5 23.5C42.8333 25.8333 44 28.6667 44 32C44 35.3333 42.8333 38.1667 40.5 40.5C38.1667 42.8333 35.3333 44 32 44C28.6667 44 25.8333 42.8333 23.5 40.5ZM37.65 37.65C39.2167 36.0833 40 34.2 40 32C40 29.8 39.2167 27.9167 37.65 26.35C36.0833 24.7833 34.2 24 32 24C29.8 24 27.9167 24.7833 26.35 26.35C24.7833 27.9167 24 29.8 24 32C24 34.2 24.7833 36.0833 26.35 37.65C27.9167 39.2167 29.8 40 32 40C34.2 40 36.0833 39.2167 37.65 37.65ZM29.176 34.826C28.392 34.042 28 33.1 28 32C28 30.9 28.392 29.9587 29.176 29.176C29.96 28.3933 30.9013 28.0013 32 28C33.0987 27.9987 34.0407 28.3907 34.826 29.176C35.6113 29.9613 36.0027 30.9027 36 32C35.9973 33.0973 35.606 34.0393 34.826 34.826C34.046 35.6127 33.104 36.004 32 36C30.896 35.996 29.9547 35.6047 29.176 34.826Z" fill="#6C5CE7"/>
</svg>
